<svg width="20" height="20" viewBox="0 0 20 20" fill="none" xmlns="http://www.w3.org/2000/svg">
<path d="M9.5475 13.2749L2.91 6.30863C2.79919 6.19239 2.73738 6.03796 2.73738 5.87738C2.73738 5.71679 2.79919 5.56236 2.91 5.44613L2.9175 5.43863C2.97122 5.38208 3.03587 5.33706 3.10754 5.30629C3.17921 5.27552 3.25638 5.25966 3.33438 5.25966C3.41237 5.25966 3.48954 5.27552 3.56121 5.30629C3.63288 5.33706 3.69753 5.38208 3.75125 5.43863L10.0012 11.9986L16.2487 5.43863C16.3025 5.38208 16.3671 5.33706 16.4388 5.30629C16.5105 5.27552 16.5876 5.25966 16.6656 5.25966C16.7436 5.25966 16.8208 5.27552 16.8925 5.30629C16.9641 5.33706 17.0288 5.38208 17.0825 5.43863L17.09 5.44613C17.2008 5.56236 17.2626 5.71679 17.2626 5.87738C17.2626 6.03796 17.2008 6.19239 17.09 6.30863L10.4525 13.2749C10.3941 13.3361 10.3239 13.3849 10.2461 13.4182C10.1684 13.4516 10.0846 13.4688 10 13.4688C9.91538 13.4688 9.83164 13.4516 9.75386 13.4182C9.67608 13.3849 9.60587 13.3361 9.5475 13.2749Z" fill="#D9D9D9"/>
</svg>
