<svg width="18" height="18" viewBox="0 0 18 18" fill="none" xmlns="http://www.w3.org/2000/svg">
<g clip-path="url(#clip0_202_575)">
<path d="M3.47882 2.44323C5.05473 1.03124 7.09709 0.251818 9.21303 0.254892C10.7798 0.254274 12.317 0.681464 13.6587 1.49037C15.0005 2.29928 16.096 3.45921 16.8269 4.84502H9.21303C8.42092 4.84488 7.64644 5.07891 6.98695 5.51768C6.32747 5.95646 5.8124 6.58039 5.50651 7.31106L3.47882 2.44323Z" fill="white"/>
<path d="M2.60898 3.34277C1.70809 4.42099 1.08477 5.70331 0.793396 7.07781C0.502026 8.45231 0.551467 9.87724 0.937403 11.2282C1.32334 12.5792 2.03404 13.8153 3.0075 14.8285C3.98095 15.8416 5.18757 16.6012 6.52206 17.0409L9.74892 12.8432C8.75625 12.9771 7.74935 12.7354 6.92568 12.1654C6.10201 11.5954 5.52097 10.7382 5.2965 9.76206C5.27414 9.72892 5.2553 9.69354 5.24027 9.65649L2.60898 3.34277Z" fill="white"/>
<path d="M7.73856 17.3421C9.2195 17.6003 10.7423 17.4661 12.1552 16.9529C13.5682 16.4396 14.8221 15.5652 15.792 14.4168C16.762 13.2683 17.4142 11.8857 17.6838 10.4068C17.9534 8.9279 17.8309 7.40416 17.3285 5.9873C17.3011 5.99119 17.2735 5.99311 17.2458 5.99304H12.0246C12.4067 6.36666 12.7101 6.81296 12.917 7.30565C13.124 7.79835 13.2302 8.32748 13.2295 8.86187C13.2323 9.888 12.8408 10.876 12.1359 11.6217L7.73856 17.3421Z" fill="white"/>
<path d="M6.34438 8.86199C6.34438 8.10113 6.64663 7.37143 7.18464 6.83342C7.72265 6.29541 8.45234 5.99316 9.2132 5.99316C9.97406 5.99316 10.7038 6.29541 11.2418 6.83342C11.7798 7.37143 12.082 8.10113 12.082 8.86199C12.082 9.62285 11.7798 10.3525 11.2418 10.8906C10.7038 11.4286 9.97406 11.7308 9.2132 11.7308C8.45234 11.7308 7.72265 11.4286 7.18464 10.8906C6.64663 10.3525 6.34438 9.62285 6.34438 8.86199Z" fill="white"/>
</g>
<defs>
<clipPath id="clip0_202_575">
<rect width="17.213" height="17.213" fill="white" transform="translate(0.606476 0.254883)"/>
</clipPath>
</defs>
</svg>
