<?xml version="1.0" encoding="UTF-8"?>
<!DOCTYPE svg PUBLIC "-//W3C//DTD SVG 1.1//EN" "http://www.w3.org/Graphics/SVG/1.1/DTD/svg11.dtd">
<svg xmlns="http://www.w3.org/2000/svg" version="1.1" width="500px" height="500px" style="shape-rendering:geometricPrecision; text-rendering:geometricPrecision; image-rendering:optimizeQuality; fill-rule:evenodd; clip-rule:evenodd" xmlns:xlink="http://www.w3.org/1999/xlink">
<g><path style="opacity:0.971" fill="#1c2628" d="M 245.5,-0.5 C 247.833,-0.5 250.167,-0.5 252.5,-0.5C 283.773,15.1363 315.106,30.8029 346.5,46.5C 323.112,58.8606 299.445,70.6939 275.5,82C 274.167,82.6667 272.833,82.6667 271.5,82C 264.18,78.0899 256.68,74.5899 249,71.5C 240.861,75.2364 232.861,79.2364 225,83.5C 200.755,71.2944 176.589,58.9611 152.5,46.5C 183.481,30.629 214.481,14.9623 245.5,-0.5 Z"/></g>
<g><path style="opacity:0.982" fill="#1c2628" d="M 102.5,70.5 C 160.151,97.4913 217.485,125.325 274.5,154C 250.093,166.287 225.593,178.453 201,190.5C 169.228,174.697 137.395,159.031 105.5,143.5C 104.833,175.167 104.167,206.833 103.5,238.5C 79.9565,250.438 56.2898,262.105 32.5,273.5C 31.1667,217.5 31.1667,161.5 32.5,105.5C 55.9252,93.7874 79.2585,82.1207 102.5,70.5 Z"/></g>
<g><path style="opacity:0.981" fill="#1c2628" d="M 394.5,70.5 C 418.843,81.7547 443.01,93.4214 467,105.5C 467.5,130.164 467.667,154.831 467.5,179.5C 347.287,237.606 227.287,296.272 107.5,355.5C 106.167,356.167 106.167,356.833 107.5,357.5C 130.987,368.744 154.321,380.244 177.5,392C 153.198,404.151 128.864,416.318 104.5,428.5C 80.1325,416.9 55.9659,404.9 32,392.5C 31.1728,368.261 31.3394,344.094 32.5,320C 152.5,261 272.5,202 392.5,143C 368.958,130.729 345.291,118.729 321.5,107C 345.894,94.8029 370.227,82.6363 394.5,70.5 Z"/></g>
<g><path style="opacity:0.982" fill="#1c2628" d="M 464.5,225.5 C 465.5,225.5 466.5,225.5 467.5,225.5C 467.667,281.168 467.5,336.834 467,392.5C 443.029,404.902 418.862,416.902 394.5,428.5C 337.716,400.941 281.049,373.108 224.5,345C 248.907,332.713 273.407,320.547 298,308.5C 330.138,323.903 362.138,339.569 394,355.5C 394.167,323.828 394.667,292.161 395.5,260.5C 418.717,249.059 441.717,237.392 464.5,225.5 Z"/></g>
<g><path style="opacity:0.97" fill="#1c2628" d="M 251.5,499.5 C 250.167,499.5 248.833,499.5 247.5,499.5C 215.894,483.697 184.227,467.864 152.5,452C 176.449,439.442 200.616,427.275 225,415.5C 233.228,419.364 241.395,423.364 249.5,427.5C 257.5,423.5 265.5,419.5 273.5,415.5C 298.112,427.139 322.445,439.306 346.5,452C 314.773,467.864 283.106,483.697 251.5,499.5 Z"/></g>
</svg>
