<?xml version="1.0" encoding="UTF-8"?>
<!DOCTYPE svg PUBLIC "-//W3C//DTD SVG 1.1//EN" "http://www.w3.org/Graphics/SVG/1.1/DTD/svg11.dtd">
<svg xmlns="http://www.w3.org/2000/svg" version="1.1" width="500px" height="500px" style="shape-rendering:geometricPrecision; text-rendering:geometricPrecision; image-rendering:optimizeQuality; fill-rule:evenodd; clip-rule:evenodd" xmlns:xlink="http://www.w3.org/1999/xlink">
<g><path style="opacity:0.988" fill="#1d2427" d="M 499.5,233.5 C 499.5,248.833 499.5,264.167 499.5,279.5C 488.942,361.825 448.942,425.325 379.5,470C 365.045,478.152 350.045,485.152 334.5,491C 328.903,492.456 323.237,492.789 317.5,492C 314.667,490.5 312.5,488.333 311,485.5C 310.934,455.806 310.267,426.139 309,396.5C 306.818,386.139 302.485,376.805 296,368.5C 295.333,367.5 295.333,366.5 296,365.5C 324.725,363.046 350.558,353.213 373.5,336C 392.205,317.419 403.039,294.919 406,268.5C 410.585,241.734 406.585,216.401 394,192.5C 390.019,186.689 386.186,180.855 382.5,175C 388.464,153.235 387.631,131.735 380,110.5C 369.555,109.384 359.389,110.884 349.5,115C 335.863,120.816 322.863,127.65 310.5,135.5C 269.668,124.844 228.835,124.844 188,135.5C 175.1,128.294 161.933,121.461 148.5,115C 139.523,111.171 130.19,109.504 120.5,110C 118.741,111.008 117.574,112.508 117,114.5C 111.855,128.745 110.188,143.412 112,158.5C 113.499,164.81 114.499,171.143 115,177.5C 96.0289,200.358 88.0289,226.692 91,256.5C 94.1951,314.356 124.028,349.522 180.5,362C 187.795,363.494 195.128,364.66 202.5,365.5C 202.509,367.308 202.009,368.975 201,370.5C 197.581,374.331 194.914,378.665 193,383.5C 191.309,389.282 189.476,394.949 187.5,400.5C 153.257,414.033 127.424,404.699 110,372.5C 101.469,362.154 90.6355,355.82 77.5,353.5C 74.0884,354.02 70.755,354.853 67.5,356C 67.0426,356.414 66.7093,356.914 66.5,357.5C 68.2667,360.77 70.6,363.603 73.5,366C 79.9275,370.423 85.7608,375.59 91,381.5C 98.082,392.733 104.415,404.399 110,416.5C 126.98,436.165 148.48,443.998 174.5,440C 178.878,439.321 183.211,438.488 187.5,437.5C 187.177,451.412 187.51,465.246 188.5,479C 188.358,488.475 183.525,493.309 174,493.5C 101.613,470.455 49.9466,424.122 19,354.5C 9.19289,330.931 2.69289,306.597 -0.5,281.5C -0.5,265.167 -0.5,248.833 -0.5,232.5C 10.2624,144.617 53.9291,78.7841 130.5,35C 202.454,-0.92351 275.788,-3.92351 350.5,26C 438.317,67.667 487.983,136.834 499.5,233.5 Z"/></g>
</svg>
