<svg width="24" height="24" viewBox="0 0 24 24" fill="none" xmlns="http://www.w3.org/2000/svg">
<path d="M24 11.8276C24 15.0069 23.4672 17.5858 22.8097 17.5858C22.1522 17.5858 21.6196 15.0076 21.6196 11.8276C21.6196 8.64758 22.1525 6.06934 22.8097 6.06934C23.467 6.06934 24 8.64735 24 11.8276Z" fill="#1E2428"/>
<path d="M20.9628 11.8281C20.9628 15.3775 19.4476 18.2559 17.5784 18.2559C15.7092 18.2559 14.194 15.3775 14.194 11.8281C14.194 8.27883 15.709 5.40039 17.5782 5.40039C19.4473 5.40039 20.9626 8.2779 20.9626 11.8281" fill="#1E2428"/>
<path d="M13.5374 11.8277C13.5374 15.5984 10.5069 18.6552 6.76884 18.6552C3.03073 18.6552 0 15.5977 0 11.8277C0 8.05767 3.0305 5 6.76884 5C10.5072 5 13.5374 8.05698 13.5374 11.8277Z" fill="#1E2428"/>
</svg>
