<svg width="22" height="14" viewBox="0 0 22 14" fill="none" xmlns="http://www.w3.org/2000/svg">
<path d="M0 12.6C0 12.9723 0 13.1584 0.0489436 13.309C0.147861 13.6135 0.386545 13.8521 0.690983 13.9511C0.841615 14 1.02774 14 1.4 14H20.6C20.9723 14 21.1584 14 21.309 13.9511C21.6135 13.8521 21.8521 13.6135 21.9511 13.309C22 13.1584 22 12.9723 22 12.6C22 12.2277 22 12.0416 21.9511 11.891C21.8521 11.5865 21.6135 11.3479 21.309 11.2489C21.1584 11.2 20.9723 11.2 20.6 11.2H1.4C1.02774 11.2 0.841615 11.2 0.690983 11.2489C0.386545 11.3479 0.147861 11.5865 0.0489436 11.891C0 12.0416 0 12.2277 0 12.6ZM1.4 0C1.02774 0 0.841615 0 0.690983 0.0489435C0.386545 0.147861 0.147861 0.386545 0.0489435 0.690983C0 0.841615 0 1.02774 0 1.4C0 1.77226 0 1.95838 0.0489435 2.10902C0.147861 2.41346 0.386545 2.65214 0.690983 2.75106C0.841615 2.8 1.02774 2.8 1.4 2.8H20.6C20.9723 2.8 21.1584 2.8 21.309 2.75106C21.6135 2.65214 21.8521 2.41346 21.9511 2.10902C22 1.95838 22 1.77226 22 1.4C22 1.02774 22 0.841615 21.9511 0.690983C21.8521 0.386545 21.6135 0.147861 21.309 0.0489435C21.1584 0 20.9723 0 20.6 0H1.4ZM6 7C6 7.37226 6 7.55838 6.04894 7.70902C6.14786 8.01345 6.38655 8.25214 6.69098 8.35106C6.84162 8.4 7.02774 8.4 7.4 8.4H20.6C20.9723 8.4 21.1584 8.4 21.309 8.35106C21.6135 8.25214 21.8521 8.01345 21.9511 7.70902C22 7.55838 22 7.37226 22 7C22 6.62774 22 6.44162 21.9511 6.29098C21.8521 5.98655 21.6135 5.74786 21.309 5.64894C21.1584 5.6 20.9723 5.6 20.6 5.6H7.4C7.02774 5.6 6.84162 5.6 6.69098 5.64894C6.38655 5.74786 6.14786 5.98655 6.04894 6.29098C6 6.44162 6 6.62774 6 7Z" fill="white"/>
</svg>
